<svg width="15" height="13" viewBox="0 0 15 13" fill="none" xmlns="http://www.w3.org/2000/svg">
<path d="M2.22892 1.79102H2.92934C3.02233 1.79102 3.09771 1.8664 3.09771 1.95939V2.23071C3.09771 2.32369 3.02233 2.39908 2.92934 2.39908H2.22881C2.13593 2.39908 2.06055 2.32369 2.06055 2.23071V1.95939C2.06055 1.91475 2.07825 1.87191 2.10985 1.84042C2.14145 1.80883 2.18417 1.79102 2.22892 1.79102H2.22892Z" fill="white"/>
<path d="M7.34813 5.10693C6.68748 5.10683 6.05374 5.36935 5.58661 5.83651C5.11946 6.30366 4.85704 6.93728 4.85693 7.59802C4.85693 8.25868 5.11946 8.8923 5.58661 9.35946C6.05377 9.82672 6.68739 10.0891 7.34813 10.0891C8.00879 10.0891 8.64241 9.82662 9.10957 9.35946C9.57683 8.8923 9.83925 8.25868 9.83925 7.59794C9.83851 6.9375 9.57577 6.30431 9.10884 5.83738C8.64179 5.37033 8.0086 5.10769 7.34816 5.10696L7.34813 5.10693Z" fill="white"/>
<path d="M12.8676 2.88573H11.6916C11.4063 2.88573 11.1328 2.77239 10.931 2.57074C10.7294 2.36897 10.616 2.09541 10.616 1.8102C10.616 1.56633 10.5192 1.33243 10.3467 1.15993C10.1743 0.987533 9.94042 0.890625 9.69646 0.890625H4.99965C4.75569 0.890625 4.5218 0.987533 4.34939 1.15993C4.17689 1.33244 4.08008 1.56634 4.08008 1.8102C4.08008 2.09541 3.96674 2.36896 3.76509 2.57074C3.56332 2.7724 3.28977 2.88573 3.00455 2.88573H1.8285C1.47831 2.88573 1.14241 3.02484 0.894842 3.27252C0.647164 3.52009 0.508057 3.85598 0.508057 4.20618V10.9892C0.508057 11.3394 0.647164 11.6753 0.894842 11.9229C1.14242 12.1705 1.47831 12.3096 1.8285 12.3096H12.8675C13.2177 12.3096 13.5536 12.1705 13.8012 11.9229C14.0488 11.6753 14.188 11.3394 14.188 10.9892V4.20618C14.188 3.85598 14.0488 3.52009 13.8012 3.27252C13.5536 3.02484 13.2177 2.88573 12.8675 2.88573H12.8676ZM7.34811 10.8489C6.48589 10.8489 5.6589 10.5063 5.04924 9.89668C4.43948 9.28702 4.09702 8.46 4.09691 7.59781C4.09691 6.73559 4.43948 5.9086 5.04913 5.29895C5.6589 4.68918 6.48581 4.34672 7.348 4.34672C8.21033 4.34662 9.03721 4.68918 9.64697 5.29884C10.2566 5.9086 10.5992 6.73551 10.5992 7.5977C10.5982 8.45971 10.2554 9.28607 9.64591 9.89551C9.03637 10.5051 8.21011 10.848 7.34811 10.8489ZM12.3261 5.39373V5.39362C12.1548 5.39362 11.9905 5.32556 11.8693 5.20447C11.7483 5.08328 11.6802 4.91893 11.6802 4.74771C11.6802 4.57637 11.7483 4.41204 11.8693 4.29084C11.9905 4.16976 12.1548 4.10169 12.3261 4.10169C12.4974 4.10169 12.6618 4.16976 12.783 4.29084C12.9041 4.41203 12.9721 4.57639 12.9721 4.74771C12.9721 4.91894 12.9041 5.08328 12.783 5.20447C12.6618 5.32555 12.4974 5.39362 12.3261 5.39362V5.39373Z" fill="white"/>
</svg>
